<svg xmlns="http://www.w3.org/2000/svg" viewBox="0 0 780 210" role="img" aria-label="Akela Poultry logo">
  <defs>
    <linearGradient id="bg" x1="0" y1="0" x2="1" y2="0">
      <stop offset="0" stop-color="#0f513d"/>
      <stop offset="1" stop-color="#08392b"/>
    </linearGradient>
  </defs>

  <rect x="130" y="55" width="625" height="100" rx="12" fill="url(#bg)"/>

  <g transform="translate(18 12)">
    <path d="M84 118c-26 0-48 18-60 44h22c9-13 22-21 38-21 22 0 39 15 39 38v2h20v-2c0-35-26-61-59-61z" fill="#0f513d"/>
    <path d="M112 124c-20 0-38 14-47 35h20c7-9 16-14 27-14 15 0 27 10 27 25v1h18v-1c0-27-20-46-45-46z" fill="#0a6a4e"/>
    <path d="M120 72c19 0 34 11 39 28l24 5-28 14c-7 16-23 26-43 26-13 0-24-4-33-12 6-35 20-61 41-61z" fill="#e0ad2b"/>
    <circle cx="119" cy="103" r="5" fill="#fff"/>
    <path d="M80 82c11-14 25-21 43-21 14 0 27 5 38 14-9-18-27-30-49-30-16 0-29 6-41 17l9 20z" fill="#e0ad2b"/>
  </g>

  <text x="210" y="126" font-family="Outfit, Segoe UI, Arial, sans-serif" font-size="66" font-weight="700" fill="#ffffff">Akela </text>
  <text x="402" y="126" font-family="Outfit, Segoe UI, Arial, sans-serif" font-size="66" font-weight="800" fill="#e0ad2b">Poultry</text>
</svg>
